<mxfile host="app.diagrams.net" modified="2024-03-17T23:38:02.951Z" agent="Mozilla/5.0 (Windows NT 10.0; Win64; x64) AppleWebKit/537.36 (KHTML, like Gecko) Chrome/122.0.0.0 Safari/537.36" etag="nbRA5NYU0gHcUeE0Gc-r" version="24.0.7" type="github">
  <diagram name="Page-1" id="_rhM1OfTg9CKlsSA8gy4">
    <mxGraphModel dx="1562" dy="810" grid="1" gridSize="10" guides="1" tooltips="1" connect="1" arrows="1" fold="1" page="1" pageScale="1" pageWidth="10000" pageHeight="10000" math="0" shadow="0">
      <root>
        <mxCell id="0" />
        <mxCell id="1" parent="0" />
        <mxCell id="2bxoqVz_QFMGfq0rCROG-1" value="" style="rounded=0;whiteSpace=wrap;html=1;fontFamily=Helvetica;fontSize=11;fontColor=default;labelBackgroundColor=default;" vertex="1" parent="1">
          <mxGeometry x="220" y="230" width="840" height="690" as="geometry" />
        </mxCell>
        <mxCell id="2bxoqVz_QFMGfq0rCROG-2" value="&lt;b&gt;IntelliChef Recipe Management System&lt;/b&gt;" style="text;strokeColor=none;align=center;fillColor=none;html=1;verticalAlign=middle;whiteSpace=wrap;rounded=0;" vertex="1" parent="1">
          <mxGeometry x="220" y="200" width="230" height="30" as="geometry" />
        </mxCell>
        <mxCell id="2bxoqVz_QFMGfq0rCROG-3" value="&amp;lt;&amp;lt;service&amp;gt;&amp;gt;&lt;div&gt;Authentication&lt;/div&gt;" style="shape=umlActor;verticalLabelPosition=bottom;verticalAlign=top;html=1;outlineConnect=0;" vertex="1" parent="1">
          <mxGeometry x="1150" y="255" width="30" height="60" as="geometry" />
        </mxCell>
        <mxCell id="2bxoqVz_QFMGfq0rCROG-4" style="edgeStyle=orthogonalEdgeStyle;rounded=0;orthogonalLoop=1;jettySize=auto;html=1;exitX=1;exitY=0.5;exitDx=0;exitDy=0;entryX=0;entryY=0.5;entryDx=0;entryDy=0;strokeColor=default;align=center;verticalAlign=middle;fontFamily=Helvetica;fontSize=11;fontColor=default;labelBackgroundColor=default;endArrow=none;endFill=0;startArrow=none;startFill=0;" edge="1" parent="1" source="2bxoqVz_QFMGfq0rCROG-8" target="2bxoqVz_QFMGfq0rCROG-16">
          <mxGeometry relative="1" as="geometry" />
        </mxCell>
        <mxCell id="2bxoqVz_QFMGfq0rCROG-5" style="edgeStyle=orthogonalEdgeStyle;rounded=0;orthogonalLoop=1;jettySize=auto;html=1;exitX=0.5;exitY=1;exitDx=0;exitDy=0;entryX=0;entryY=0.5;entryDx=0;entryDy=0;strokeColor=default;align=center;verticalAlign=middle;fontFamily=Helvetica;fontSize=11;fontColor=default;labelBackgroundColor=default;endArrow=none;endFill=0;startArrow=classic;startFill=1;dashed=1;" edge="1" parent="1" source="2bxoqVz_QFMGfq0rCROG-8" target="2bxoqVz_QFMGfq0rCROG-30">
          <mxGeometry relative="1" as="geometry" />
        </mxCell>
        <mxCell id="2bxoqVz_QFMGfq0rCROG-6" value="&amp;lt;&amp;lt;extend&amp;gt;&amp;gt;" style="edgeLabel;html=1;align=center;verticalAlign=middle;resizable=0;points=[];fontFamily=Helvetica;fontSize=11;fontColor=default;labelBackgroundColor=default;" vertex="1" connectable="0" parent="2bxoqVz_QFMGfq0rCROG-5">
          <mxGeometry x="0.1267" y="2" relative="1" as="geometry">
            <mxPoint x="-1" y="-13" as="offset" />
          </mxGeometry>
        </mxCell>
        <mxCell id="2bxoqVz_QFMGfq0rCROG-7" style="edgeStyle=none;rounded=0;orthogonalLoop=1;jettySize=auto;html=1;exitX=0;exitY=0.5;exitDx=0;exitDy=0;strokeColor=default;align=center;verticalAlign=middle;fontFamily=Helvetica;fontSize=11;fontColor=default;labelBackgroundColor=default;endArrow=none;endFill=0;" edge="1" parent="1" source="2bxoqVz_QFMGfq0rCROG-8">
          <mxGeometry relative="1" as="geometry">
            <mxPoint x="140" y="520" as="targetPoint" />
          </mxGeometry>
        </mxCell>
        <mxCell id="2bxoqVz_QFMGfq0rCROG-8" value="Search for ingredients" style="ellipse;whiteSpace=wrap;html=1;" vertex="1" parent="1">
          <mxGeometry x="300" y="415" width="160" height="60" as="geometry" />
        </mxCell>
        <mxCell id="2bxoqVz_QFMGfq0rCROG-9" style="edgeStyle=orthogonalEdgeStyle;rounded=0;orthogonalLoop=1;jettySize=auto;html=1;exitX=1;exitY=0.5;exitDx=0;exitDy=0;entryX=0;entryY=0.5;entryDx=0;entryDy=0;strokeColor=default;align=center;verticalAlign=middle;fontFamily=Helvetica;fontSize=11;fontColor=default;labelBackgroundColor=default;endArrow=none;endFill=0;startArrow=classic;startFill=1;dashed=1;" edge="1" parent="1" source="2bxoqVz_QFMGfq0rCROG-12" target="2bxoqVz_QFMGfq0rCROG-18">
          <mxGeometry relative="1" as="geometry" />
        </mxCell>
        <mxCell id="2bxoqVz_QFMGfq0rCROG-10" value="&amp;lt;&amp;lt;include&amp;gt;&amp;gt;" style="edgeLabel;html=1;align=center;verticalAlign=middle;resizable=0;points=[];fontFamily=Helvetica;fontSize=11;fontColor=default;labelBackgroundColor=default;" vertex="1" connectable="0" parent="2bxoqVz_QFMGfq0rCROG-9">
          <mxGeometry x="0.2741" relative="1" as="geometry">
            <mxPoint y="-10" as="offset" />
          </mxGeometry>
        </mxCell>
        <mxCell id="2bxoqVz_QFMGfq0rCROG-11" style="edgeStyle=none;rounded=0;orthogonalLoop=1;jettySize=auto;html=1;exitX=0;exitY=0.5;exitDx=0;exitDy=0;strokeColor=default;align=center;verticalAlign=middle;fontFamily=Helvetica;fontSize=11;fontColor=default;labelBackgroundColor=default;endArrow=none;endFill=0;" edge="1" parent="1" source="2bxoqVz_QFMGfq0rCROG-12">
          <mxGeometry relative="1" as="geometry">
            <mxPoint x="140" y="520" as="targetPoint" />
          </mxGeometry>
        </mxCell>
        <mxCell id="2bxoqVz_QFMGfq0rCROG-12" value="Save Recipes to &quot;Favorites&quot;" style="ellipse;whiteSpace=wrap;html=1;" vertex="1" parent="1">
          <mxGeometry x="300" y="660" width="160" height="60" as="geometry" />
        </mxCell>
        <mxCell id="2bxoqVz_QFMGfq0rCROG-13" style="edgeStyle=none;rounded=0;orthogonalLoop=1;jettySize=auto;html=1;exitX=0;exitY=0.5;exitDx=0;exitDy=0;strokeColor=default;align=center;verticalAlign=middle;fontFamily=Helvetica;fontSize=11;fontColor=default;labelBackgroundColor=default;endArrow=none;endFill=0;" edge="1" parent="1" source="2bxoqVz_QFMGfq0rCROG-15">
          <mxGeometry relative="1" as="geometry">
            <mxPoint x="140" y="520" as="targetPoint" />
          </mxGeometry>
        </mxCell>
        <mxCell id="2bxoqVz_QFMGfq0rCROG-14" style="edgeStyle=none;rounded=0;orthogonalLoop=1;jettySize=auto;html=1;exitX=1;exitY=0.5;exitDx=0;exitDy=0;strokeColor=default;align=center;verticalAlign=middle;fontFamily=Helvetica;fontSize=11;fontColor=default;labelBackgroundColor=default;endArrow=none;endFill=0;" edge="1" parent="1" source="2bxoqVz_QFMGfq0rCROG-15">
          <mxGeometry relative="1" as="geometry">
            <mxPoint x="1130" y="290" as="targetPoint" />
          </mxGeometry>
        </mxCell>
        <mxCell id="2bxoqVz_QFMGfq0rCROG-15" value="Login" style="ellipse;whiteSpace=wrap;html=1;" vertex="1" parent="1">
          <mxGeometry x="320" y="345" width="80" height="30" as="geometry" />
        </mxCell>
        <mxCell id="2bxoqVz_QFMGfq0rCROG-16" value="Ingredient" style="ellipse;whiteSpace=wrap;html=1;" vertex="1" parent="1">
          <mxGeometry x="540" y="375" width="160" height="60" as="geometry" />
        </mxCell>
        <mxCell id="2bxoqVz_QFMGfq0rCROG-17" style="edgeStyle=none;rounded=0;orthogonalLoop=1;jettySize=auto;html=1;exitX=1;exitY=0.5;exitDx=0;exitDy=0;strokeColor=default;align=center;verticalAlign=middle;fontFamily=Helvetica;fontSize=11;fontColor=default;labelBackgroundColor=default;endArrow=none;endFill=0;" edge="1" parent="1" source="2bxoqVz_QFMGfq0rCROG-18">
          <mxGeometry relative="1" as="geometry">
            <mxPoint x="1140" y="480" as="targetPoint" />
          </mxGeometry>
        </mxCell>
        <mxCell id="2bxoqVz_QFMGfq0rCROG-18" value="Manage &quot;Favorites&quot;" style="ellipse;whiteSpace=wrap;html=1;" vertex="1" parent="1">
          <mxGeometry x="550" y="660" width="160" height="60" as="geometry" />
        </mxCell>
        <mxCell id="2bxoqVz_QFMGfq0rCROG-19" style="edgeStyle=orthogonalEdgeStyle;rounded=0;orthogonalLoop=1;jettySize=auto;html=1;exitX=1;exitY=0.5;exitDx=0;exitDy=0;entryX=0;entryY=0.5;entryDx=0;entryDy=0;strokeColor=default;align=center;verticalAlign=middle;fontFamily=Helvetica;fontSize=11;fontColor=default;labelBackgroundColor=default;endArrow=none;endFill=0;startArrow=classic;startFill=1;dashed=1;" edge="1" parent="1" source="2bxoqVz_QFMGfq0rCROG-24" target="2bxoqVz_QFMGfq0rCROG-26">
          <mxGeometry relative="1" as="geometry" />
        </mxCell>
        <mxCell id="2bxoqVz_QFMGfq0rCROG-20" value="&amp;lt;&amp;lt;include&amp;gt;&amp;gt;" style="edgeLabel;html=1;align=center;verticalAlign=middle;resizable=0;points=[];fontFamily=Helvetica;fontSize=11;fontColor=default;labelBackgroundColor=default;" vertex="1" connectable="0" parent="2bxoqVz_QFMGfq0rCROG-19">
          <mxGeometry x="0.2529" relative="1" as="geometry">
            <mxPoint y="-10" as="offset" />
          </mxGeometry>
        </mxCell>
        <mxCell id="2bxoqVz_QFMGfq0rCROG-21" style="edgeStyle=orthogonalEdgeStyle;rounded=0;orthogonalLoop=1;jettySize=auto;html=1;entryX=0;entryY=0.5;entryDx=0;entryDy=0;strokeColor=default;align=center;verticalAlign=middle;fontFamily=Helvetica;fontSize=11;fontColor=default;labelBackgroundColor=default;endArrow=none;endFill=0;startArrow=classic;startFill=1;dashed=1;exitX=0.5;exitY=1;exitDx=0;exitDy=0;" edge="1" parent="1" source="2bxoqVz_QFMGfq0rCROG-24" target="2bxoqVz_QFMGfq0rCROG-28">
          <mxGeometry relative="1" as="geometry" />
        </mxCell>
        <mxCell id="2bxoqVz_QFMGfq0rCROG-22" value="&amp;lt;&amp;lt;extend&amp;gt;&amp;gt;" style="edgeLabel;html=1;align=center;verticalAlign=middle;resizable=0;points=[];fontFamily=Helvetica;fontSize=11;fontColor=default;labelBackgroundColor=default;" vertex="1" connectable="0" parent="2bxoqVz_QFMGfq0rCROG-21">
          <mxGeometry x="0.1815" relative="1" as="geometry">
            <mxPoint x="1" y="-10" as="offset" />
          </mxGeometry>
        </mxCell>
        <mxCell id="2bxoqVz_QFMGfq0rCROG-23" style="edgeStyle=none;rounded=0;orthogonalLoop=1;jettySize=auto;html=1;exitX=0;exitY=0.5;exitDx=0;exitDy=0;strokeColor=default;align=center;verticalAlign=middle;fontFamily=Helvetica;fontSize=11;fontColor=default;labelBackgroundColor=default;endArrow=none;endFill=0;" edge="1" parent="1" source="2bxoqVz_QFMGfq0rCROG-24">
          <mxGeometry relative="1" as="geometry">
            <mxPoint x="140" y="520" as="targetPoint" />
          </mxGeometry>
        </mxCell>
        <mxCell id="2bxoqVz_QFMGfq0rCROG-24" value="View Recipe History" style="ellipse;whiteSpace=wrap;html=1;" vertex="1" parent="1">
          <mxGeometry x="300" y="750" width="160" height="60" as="geometry" />
        </mxCell>
        <mxCell id="2bxoqVz_QFMGfq0rCROG-25" style="edgeStyle=none;rounded=0;orthogonalLoop=1;jettySize=auto;html=1;exitX=1;exitY=0.5;exitDx=0;exitDy=0;strokeColor=default;align=center;verticalAlign=middle;fontFamily=Helvetica;fontSize=11;fontColor=default;labelBackgroundColor=default;endArrow=none;endFill=0;" edge="1" parent="1" source="2bxoqVz_QFMGfq0rCROG-26">
          <mxGeometry relative="1" as="geometry">
            <mxPoint x="1140" y="480" as="targetPoint" />
          </mxGeometry>
        </mxCell>
        <mxCell id="2bxoqVz_QFMGfq0rCROG-26" value="Manage History" style="ellipse;whiteSpace=wrap;html=1;" vertex="1" parent="1">
          <mxGeometry x="550" y="750" width="160" height="60" as="geometry" />
        </mxCell>
        <mxCell id="2bxoqVz_QFMGfq0rCROG-27" style="edgeStyle=none;rounded=0;orthogonalLoop=1;jettySize=auto;html=1;exitX=1;exitY=0.5;exitDx=0;exitDy=0;strokeColor=default;align=center;verticalAlign=middle;fontFamily=Helvetica;fontSize=11;fontColor=default;labelBackgroundColor=default;endArrow=none;endFill=0;" edge="1" parent="1" source="2bxoqVz_QFMGfq0rCROG-28">
          <mxGeometry relative="1" as="geometry">
            <mxPoint x="1140" y="480" as="targetPoint" />
          </mxGeometry>
        </mxCell>
        <mxCell id="2bxoqVz_QFMGfq0rCROG-28" value="Rate Recipes" style="ellipse;whiteSpace=wrap;html=1;" vertex="1" parent="1">
          <mxGeometry x="550" y="830" width="160" height="60" as="geometry" />
        </mxCell>
        <mxCell id="2bxoqVz_QFMGfq0rCROG-29" style="edgeStyle=none;rounded=0;orthogonalLoop=1;jettySize=auto;html=1;exitX=0.5;exitY=1;exitDx=0;exitDy=0;strokeColor=default;align=center;verticalAlign=middle;fontFamily=Helvetica;fontSize=11;fontColor=default;labelBackgroundColor=default;endArrow=none;endFill=0;" edge="1" parent="1" source="2bxoqVz_QFMGfq0rCROG-30">
          <mxGeometry relative="1" as="geometry">
            <mxPoint x="1129.9999999999995" y="690" as="targetPoint" />
          </mxGeometry>
        </mxCell>
        <mxCell id="2bxoqVz_QFMGfq0rCROG-30" value="Smart suggestions" style="ellipse;whiteSpace=wrap;html=1;" vertex="1" parent="1">
          <mxGeometry x="540" y="465" width="160" height="60" as="geometry" />
        </mxCell>
        <mxCell id="2bxoqVz_QFMGfq0rCROG-31" style="rounded=0;orthogonalLoop=1;jettySize=auto;html=1;exitX=0;exitY=0.5;exitDx=0;exitDy=0;strokeColor=default;align=center;verticalAlign=middle;fontFamily=Helvetica;fontSize=11;fontColor=default;labelBackgroundColor=default;endArrow=none;endFill=0;" edge="1" parent="1" source="2bxoqVz_QFMGfq0rCROG-34">
          <mxGeometry relative="1" as="geometry">
            <mxPoint x="140" y="320" as="targetPoint" />
          </mxGeometry>
        </mxCell>
        <mxCell id="2bxoqVz_QFMGfq0rCROG-32" style="edgeStyle=none;rounded=0;orthogonalLoop=1;jettySize=auto;html=1;exitX=1;exitY=0.5;exitDx=0;exitDy=0;strokeColor=default;align=center;verticalAlign=middle;fontFamily=Helvetica;fontSize=11;fontColor=default;labelBackgroundColor=default;endArrow=none;endFill=0;" edge="1" parent="1" source="2bxoqVz_QFMGfq0rCROG-34">
          <mxGeometry relative="1" as="geometry">
            <mxPoint x="1140" y="480" as="targetPoint" />
          </mxGeometry>
        </mxCell>
        <mxCell id="2bxoqVz_QFMGfq0rCROG-33" style="edgeStyle=none;rounded=0;orthogonalLoop=1;jettySize=auto;html=1;exitX=1;exitY=0.5;exitDx=0;exitDy=0;strokeColor=default;align=center;verticalAlign=middle;fontFamily=Helvetica;fontSize=11;fontColor=default;labelBackgroundColor=default;endArrow=none;endFill=0;" edge="1" parent="1" source="2bxoqVz_QFMGfq0rCROG-34">
          <mxGeometry relative="1" as="geometry">
            <mxPoint x="1130" y="290" as="targetPoint" />
          </mxGeometry>
        </mxCell>
        <mxCell id="2bxoqVz_QFMGfq0rCROG-34" value="Create Account" style="ellipse;whiteSpace=wrap;html=1;" vertex="1" parent="1">
          <mxGeometry x="310" y="260" width="100" height="50" as="geometry" />
        </mxCell>
        <mxCell id="2bxoqVz_QFMGfq0rCROG-35" style="edgeStyle=orthogonalEdgeStyle;rounded=0;orthogonalLoop=1;jettySize=auto;html=1;exitX=0;exitY=0.5;exitDx=0;exitDy=0;entryX=1;entryY=0.5;entryDx=0;entryDy=0;strokeColor=default;align=center;verticalAlign=middle;fontFamily=Helvetica;fontSize=11;fontColor=default;labelBackgroundColor=default;endArrow=none;endFill=0;startArrow=classic;startFill=1;dashed=1;" edge="1" parent="1" source="2bxoqVz_QFMGfq0rCROG-39" target="2bxoqVz_QFMGfq0rCROG-30">
          <mxGeometry relative="1" as="geometry" />
        </mxCell>
        <mxCell id="2bxoqVz_QFMGfq0rCROG-36" value="&amp;lt;&amp;lt;include&amp;gt;&amp;gt;" style="edgeLabel;html=1;align=center;verticalAlign=middle;resizable=0;points=[];fontFamily=Helvetica;fontSize=11;fontColor=default;labelBackgroundColor=default;" vertex="1" connectable="0" parent="2bxoqVz_QFMGfq0rCROG-35">
          <mxGeometry x="0.2767" y="-3" relative="1" as="geometry">
            <mxPoint x="-7" y="17" as="offset" />
          </mxGeometry>
        </mxCell>
        <mxCell id="2bxoqVz_QFMGfq0rCROG-37" style="edgeStyle=orthogonalEdgeStyle;rounded=0;orthogonalLoop=1;jettySize=auto;html=1;exitX=0;exitY=0.5;exitDx=0;exitDy=0;entryX=1;entryY=0.5;entryDx=0;entryDy=0;strokeColor=default;align=center;verticalAlign=middle;fontFamily=Helvetica;fontSize=11;fontColor=default;labelBackgroundColor=default;endArrow=none;endFill=0;startArrow=classic;startFill=1;dashed=1;" edge="1" parent="1" source="2bxoqVz_QFMGfq0rCROG-39" target="2bxoqVz_QFMGfq0rCROG-16">
          <mxGeometry relative="1" as="geometry" />
        </mxCell>
        <mxCell id="2bxoqVz_QFMGfq0rCROG-38" value="&amp;lt;&amp;lt;include&amp;gt;&amp;gt;" style="edgeLabel;html=1;align=center;verticalAlign=middle;resizable=0;points=[];fontFamily=Helvetica;fontSize=11;fontColor=default;labelBackgroundColor=default;" vertex="1" connectable="0" parent="2bxoqVz_QFMGfq0rCROG-37">
          <mxGeometry x="0.3067" y="1" relative="1" as="geometry">
            <mxPoint x="-9" y="-22" as="offset" />
          </mxGeometry>
        </mxCell>
        <mxCell id="2bxoqVz_QFMGfq0rCROG-39" value="Add to ingredient list" style="ellipse;whiteSpace=wrap;html=1;" vertex="1" parent="1">
          <mxGeometry x="780" y="430" width="160" height="60" as="geometry" />
        </mxCell>
        <mxCell id="2bxoqVz_QFMGfq0rCROG-40" value="Recipe DB" style="shape=umlActor;verticalLabelPosition=bottom;verticalAlign=top;html=1;outlineConnect=0;" vertex="1" parent="1">
          <mxGeometry x="1150" y="760" width="30" height="60" as="geometry" />
        </mxCell>
        <mxCell id="2bxoqVz_QFMGfq0rCROG-41" style="edgeStyle=orthogonalEdgeStyle;rounded=0;orthogonalLoop=1;jettySize=auto;html=1;exitX=0.5;exitY=0;exitDx=0;exitDy=0;entryX=0.5;entryY=1;entryDx=0;entryDy=0;strokeColor=default;align=center;verticalAlign=middle;fontFamily=Helvetica;fontSize=11;fontColor=default;labelBackgroundColor=default;endArrow=classic;endFill=1;startArrow=none;startFill=0;dashed=1;" edge="1" parent="1" source="2bxoqVz_QFMGfq0rCROG-44" target="2bxoqVz_QFMGfq0rCROG-39">
          <mxGeometry relative="1" as="geometry" />
        </mxCell>
        <mxCell id="2bxoqVz_QFMGfq0rCROG-42" value="&amp;lt;&amp;lt;extend&amp;gt;&amp;gt;" style="edgeLabel;html=1;align=center;verticalAlign=middle;resizable=0;points=[];fontFamily=Helvetica;fontSize=11;fontColor=default;labelBackgroundColor=default;" vertex="1" connectable="0" parent="2bxoqVz_QFMGfq0rCROG-41">
          <mxGeometry x="0.3543" y="-2" relative="1" as="geometry">
            <mxPoint x="28" y="9" as="offset" />
          </mxGeometry>
        </mxCell>
        <mxCell id="2bxoqVz_QFMGfq0rCROG-43" style="edgeStyle=none;rounded=0;orthogonalLoop=1;jettySize=auto;html=1;exitX=0.5;exitY=1;exitDx=0;exitDy=0;strokeColor=default;align=center;verticalAlign=middle;fontFamily=Helvetica;fontSize=11;fontColor=default;labelBackgroundColor=default;endArrow=none;endFill=0;" edge="1" parent="1" source="2bxoqVz_QFMGfq0rCROG-44">
          <mxGeometry relative="1" as="geometry">
            <mxPoint x="1130" y="790" as="targetPoint" />
          </mxGeometry>
        </mxCell>
        <mxCell id="2bxoqVz_QFMGfq0rCROG-44" value="Valid Recipes" style="ellipse;whiteSpace=wrap;html=1;" vertex="1" parent="1">
          <mxGeometry x="780" y="525" width="160" height="60" as="geometry" />
        </mxCell>
        <mxCell id="2bxoqVz_QFMGfq0rCROG-45" style="edgeStyle=none;rounded=0;orthogonalLoop=1;jettySize=auto;html=1;exitX=0;exitY=0.5;exitDx=0;exitDy=0;strokeColor=default;align=center;verticalAlign=middle;fontFamily=Helvetica;fontSize=11;fontColor=default;labelBackgroundColor=default;endArrow=none;endFill=0;" edge="1" parent="1" source="2bxoqVz_QFMGfq0rCROG-48">
          <mxGeometry relative="1" as="geometry">
            <mxPoint x="140" y="320" as="targetPoint" />
          </mxGeometry>
        </mxCell>
        <mxCell id="2bxoqVz_QFMGfq0rCROG-46" style="edgeStyle=none;rounded=0;orthogonalLoop=1;jettySize=auto;html=1;exitX=0;exitY=0.5;exitDx=0;exitDy=0;strokeColor=default;align=center;verticalAlign=middle;fontFamily=Helvetica;fontSize=11;fontColor=default;labelBackgroundColor=default;endArrow=none;endFill=0;" edge="1" parent="1" source="2bxoqVz_QFMGfq0rCROG-48">
          <mxGeometry relative="1" as="geometry">
            <mxPoint x="140" y="520" as="targetPoint" />
          </mxGeometry>
        </mxCell>
        <mxCell id="2bxoqVz_QFMGfq0rCROG-47" style="edgeStyle=none;rounded=0;orthogonalLoop=1;jettySize=auto;html=1;exitX=1;exitY=0.5;exitDx=0;exitDy=0;strokeColor=default;align=center;verticalAlign=middle;fontFamily=Helvetica;fontSize=11;fontColor=default;labelBackgroundColor=default;endArrow=none;endFill=0;" edge="1" parent="1" source="2bxoqVz_QFMGfq0rCROG-48">
          <mxGeometry relative="1" as="geometry">
            <mxPoint x="1130" y="790" as="targetPoint" />
          </mxGeometry>
        </mxCell>
        <mxCell id="2bxoqVz_QFMGfq0rCROG-48" value="Browse Recipes" style="ellipse;whiteSpace=wrap;html=1;" vertex="1" parent="1">
          <mxGeometry x="300" y="540" width="160" height="60" as="geometry" />
        </mxCell>
        <mxCell id="2bxoqVz_QFMGfq0rCROG-49" value="Unauthorized User" style="shape=umlActor;verticalLabelPosition=bottom;verticalAlign=top;html=1;outlineConnect=0;" vertex="1" parent="1">
          <mxGeometry x="92.5" y="280" width="30" height="60" as="geometry" />
        </mxCell>
        <mxCell id="2bxoqVz_QFMGfq0rCROG-50" value="Authorized User" style="shape=umlActor;verticalLabelPosition=bottom;verticalAlign=top;html=1;outlineConnect=0;" vertex="1" parent="1">
          <mxGeometry x="92.5" y="490" width="30" height="60" as="geometry" />
        </mxCell>
        <mxCell id="2bxoqVz_QFMGfq0rCROG-51" value="User DB" style="shape=umlActor;verticalLabelPosition=bottom;verticalAlign=top;html=1;outlineConnect=0;" vertex="1" parent="1">
          <mxGeometry x="1150" y="450" width="30" height="60" as="geometry" />
        </mxCell>
        <mxCell id="2bxoqVz_QFMGfq0rCROG-52" value="ML Model" style="shape=umlActor;verticalLabelPosition=bottom;verticalAlign=top;html=1;outlineConnect=0;" vertex="1" parent="1">
          <mxGeometry x="1150" y="660" width="30" height="60" as="geometry" />
        </mxCell>
      </root>
    </mxGraphModel>
  </diagram>
</mxfile>
